<svg xmlns="http://www.w3.org/2000/svg" xmlns:svg="http://www.w3.org/2000/svg" id="svg2" width="24" height="24" version="1.1" viewBox="0 0 24 24"><path id="path1" fill="none" d="M0 0h24v24H0z"/><path id="path2" d="M 11,6.0397351 H 7 V 20.039735 H 17 V 6.0397351 h -4 v -2 h -2 z m -2,-2 v -1 c 0,-0.5522847 0.4477153,-1 1,-1 h 4 c 0.552285,0 1,0.4477153 1,1 v 1 h 3 c 0.552285,0 1,0.4477153 1,1 V 21.039735 c 0,0.552285 -0.447715,1 -1,1 H 6 c -0.5522847,0 -1,-0.447715 -1,-1 V 5.0397351 c 0,-0.5522847 0.4477153,-1 1,-1 z"/><rect style="fill:#000;stroke-width:.83317" id="rect4" width="1.987" height="8.543" x="11.026" y="8.96" ry=".725"/><rect style="fill:#000;stroke-width:.795508" id="rect4-3" width="1.947" height="7.947" x="12.311" y="-16" ry=".674" transform="rotate(90)"/></svg>