<svg xmlns="http://www.w3.org/2000/svg" xmlns:svg="http://www.w3.org/2000/svg" id="svg16" x="0" y="0" data-name="Layer 1" version="1.1" viewBox="0 0 100 125"><title id="title2">Artboard 84</title><rect id="rect4" width="13.57" height="6.79" x="63.57" y="63.57"/><rect id="rect6" width="13.57" height="6.79" x="63.57" y="29.64"/><rect id="rect8" width="13.57" height="20.36" x="29.64" y="36.43"/><path id="path10" d="M83.93,9.29H16.07A13.56,13.56,0,0,0,2.5,22.86V77.14A13.56,13.56,0,0,0,16.07,90.71H83.93A13.57,13.57,0,0,0,97.5,77.14V22.86A13.57,13.57,0,0,0,83.93,9.29ZM16.07,63.57H9.29V29.64h6.78Zm33.93,0H22.86V29.64H50Zm33.93,0V83.93H77.14V77.14H56.79V56.79H83.93Zm0-40.71V43.21H56.79V16.07h6.78v6.79H77.14V16.07h6.79Z" clip-path="none"/><metadata id="metadata278"/></svg>