<svg xmlns="http://www.w3.org/2000/svg" xmlns:svg="http://www.w3.org/2000/svg" id="svg286" width="57.906" height="52" x="0" y="0" data-name="Layer 2" version="1.1" viewBox="0 0 57.906 52"><metadata id="metadata292"/><title id="title266">12, cloud, smoke, polution, CO2, ecology, enviroment,</title><path id="path268" d="m 45.601087,17 h -3.5 A 17,17 0 0 0 8.1010871,17 c 0,0.3 0,0.5 0,0.8 A 12.5,12.5 0 0 0 12.601087,42 h 17.1 a 13,13 0 0 0 19.2,-0.5 12.5,12.5 0 0 0 -3.3,-24.5 z m 2.5,22.7 -0.5,0.3 a 11,11 0 0 1 -16.6,0.3 1,1 0 0 0 -0.7,-0.3 h -17.7 a 10.5,10.5 0 0 1 -3.0999999,-20.5 1,1 0 0 0 0.6999999,-1 c 0,-0.5 -0.1,-1 -0.1,-1.4 a 15,15 0 0 1 30,0 c 0,0.2 0,0.5 0,0.7 V 18 a 1,1 0 0 0 1,1.1 h 4.6 a 10.5,10.5 0 0 1 2.4,20.6 z"/><path id="path270" d="m 49.101087,15 a 4,4 0 1 0 -4,-4 4,4 0 0 0 4,4 z m 0,-6 a 2,2 0 1 1 -2,2 2,2 0 0 1 2,-2 z"/><path id="path272" d="M 4.1010871,8 A 4,4 0 1 0 0.10108706,4 4,4 0 0 0 4.1010871,8 Z m 0,-6 a 2,2 0 1 1 -2,2 2,2 0 0 1 2,-2 z"/><path id="path274" d="m 21.101087,52 a 4,4 0 1 0 -4,-4 4,4 0 0 0 4,4 z m 0,-6 a 2,2 0 1 1 -2,2 2,2 0 0 1 2,-2 z"/><path id="path276" d="m 31.101087,17 a 5,5 0 0 0 -5,5 v 5 a 5,5 0 0 0 10,0 v -5 a 5,5 0 0 0 -5,-5 z m 3,10 a 3,3 0 0 1 -6,0 v -5 a 3,3 0 0 1 6,0 z"/><path id="path278" d="m 20.101087,19 a 3,3 0 0 1 3,3 1,1 0 0 0 2,0 5,5 0 0 0 -10,0 v 5 a 5,5 0 0 0 10,0 1,1 0 0 0 -2,0 3,3 0 0 1 -6,0 v -5 a 3,3 0 0 1 3,-3 z"/><path id="path280" d="m 44.101087,32 h -3.6 l 0.5,-0.5 c 1,-1 2.1,-2 2.1,-3.5 a 3,3 0 0 0 -3,-3 3.2,3.2 0 0 0 -3,3 1,1 0 0 0 2,0 1.2,1.2 0 0 1 1,-1 1,1 0 0 1 1,1 c 0,0.6 -0.7,1.3 -1.5,2.1 l -2.2,2.2 a 1,1 0 0 0 0.7,1.7 h 6 a 1,1 0 0 0 0,-2 z"/></svg>